<svg width="4633" height="1944" xmlns="http://www.w3.org/2000/svg" xmlns:xlink="http://www.w3.org/1999/xlink" overflow="hidden"><defs><clipPath id="clip0"><rect x="-11" y="382" width="4633" height="1944"/></clipPath></defs><g clip-path="url(#clip0)" transform="translate(11 -382)"><path d="M148.5 1012.7C148.5 997.678 160.678 985.5 175.7 985.5L665.3 985.5C680.322 985.5 692.5 997.678 692.5 1012.7L692.5 1230.3C692.5 1245.32 680.322 1257.5 665.3 1257.5L175.7 1257.5C160.678 1257.5 148.5 1245.32 148.5 1230.3Z" stroke="#FFFFFF" stroke-width="4.58333" stroke-miterlimit="8" fill="#A5A5A5" fill-rule="evenodd"/><text font-family="Calibri,Calibri_MSFontService,sans-serif" font-weight="400" font-size="64" transform="matrix(1 0 0 1 195.901 1139)">RAVDESS Dataset</text><path d="M692.108 1121.16 909.672 730.224" stroke="#838383" stroke-width="4.58333" stroke-miterlimit="8" fill="none" fill-rule="evenodd"/><path d="M910.5 621.7C910.5 606.678 922.678 594.5 937.7 594.5L1427.3 594.5C1442.32 594.5 1454.5 606.678 1454.5 621.7L1454.5 839.3C1454.5 854.322 1442.32 866.5 1427.3 866.5L937.7 866.5C922.678 866.5 910.5 854.322 910.5 839.3Z" stroke="#FFFFFF" stroke-width="4.58333" stroke-miterlimit="8" fill="#A5A5A5" fill-rule="evenodd"/><text font-family="Calibri,Calibri_MSFontService,sans-serif" font-weight="400" font-size="64" transform="matrix(1 0 0 1 1038.74 713)">2D Feature <tspan font-size="64" x="11.1375" y="71">Extraction</tspan></text><path d="M1454.5 730.297 1672.06 730.297" stroke="#959595" stroke-width="4.58333" stroke-miterlimit="8" fill="none" fill-rule="evenodd"/><path d="M1671.5 621.7C1671.5 606.678 1683.68 594.5 1698.7 594.5L2188.3 594.5C2203.32 594.5 2215.5 606.678 2215.5 621.7L2215.5 839.3C2215.5 854.322 2203.32 866.5 2188.3 866.5L1698.7 866.5C1683.68 866.5 1671.5 854.322 1671.5 839.3Z" stroke="#FFFFFF" stroke-width="4.58333" stroke-miterlimit="8" fill="#A5A5A5" fill-rule="evenodd"/><text font-family="Calibri,Calibri_MSFontService,sans-serif" font-weight="400" font-size="64" transform="matrix(1 0 0 1 1841.33 748)">2D CNN</text><path d="M692.107 1121.16 909.672 1512.1" stroke="#838383" stroke-width="4.58333" stroke-miterlimit="8" fill="none" fill-rule="evenodd"/><path d="M910.5 1403.7C910.5 1388.68 922.678 1376.5 937.7 1376.5L1427.3 1376.5C1442.32 1376.5 1454.5 1388.68 1454.5 1403.7L1454.5 1621.3C1454.5 1636.32 1442.32 1648.5 1427.3 1648.5L937.7 1648.5C922.678 1648.5 910.5 1636.32 910.5 1621.3Z" stroke="#FFFFFF" stroke-width="4.58333" stroke-miterlimit="8" fill="#A5A5A5" fill-rule="evenodd"/><text font-family="Calibri,Calibri_MSFontService,sans-serif" font-weight="400" font-size="64" transform="matrix(1 0 0 1 1038.74 1495)">1D Feature <tspan font-size="64" x="11.1375" y="71">Extraction</tspan></text><path d="M1453.58 1512.1 1671.15 1042.97" stroke="#959595" stroke-width="4.58333" stroke-miterlimit="8" fill="none" fill-rule="evenodd"/><path d="M1671.5 934.7C1671.5 919.678 1683.68 907.5 1698.7 907.5L2188.3 907.5C2203.32 907.5 2215.5 919.678 2215.5 934.7L2215.5 1152.3C2215.5 1167.32 2203.32 1179.5 2188.3 1179.5L1698.7 1179.5C1683.68 1179.5 1671.5 1167.32 1671.5 1152.3Z" stroke="#FFFFFF" stroke-width="4.58333" stroke-miterlimit="8" fill="#A5A5A5" fill-rule="evenodd"/><text font-family="Calibri,Calibri_MSFontService,sans-serif" font-weight="400" font-size="64" transform="matrix(1 0 0 1 1698.21 1061)">Logistic Regression</text><path d="M1453.58 1512.1 1671.15 1355.72" stroke="#959595" stroke-width="4.58333" stroke-miterlimit="8" fill="none" fill-rule="evenodd"/><path d="M1671.5 1247.7C1671.5 1232.68 1683.68 1220.5 1698.7 1220.5L2188.3 1220.5C2203.32 1220.5 2215.5 1232.68 2215.5 1247.7L2215.5 1465.3C2215.5 1480.32 2203.32 1492.5 2188.3 1492.5L1698.7 1492.5C1683.68 1492.5 1671.5 1480.32 1671.5 1465.3Z" stroke="#FFFFFF" stroke-width="4.58333" stroke-miterlimit="8" fill="#A5A5A5" fill-rule="evenodd"/><text font-family="Calibri,Calibri_MSFontService,sans-serif" font-weight="400" font-size="64" transform="matrix(1 0 0 1 1882.93 1373)">SVM</text><path d="M1453.58 1512.1 1671.15 1668.47" stroke="#959595" stroke-width="4.58333" stroke-miterlimit="8" fill="none" fill-rule="evenodd"/><path d="M1671.5 1559.7C1671.5 1544.68 1683.68 1532.5 1698.7 1532.5L2188.3 1532.5C2203.32 1532.5 2215.5 1544.68 2215.5 1559.7L2215.5 1777.3C2215.5 1792.32 2203.32 1804.5 2188.3 1804.5L1698.7 1804.5C1683.68 1804.5 1671.5 1792.32 1671.5 1777.3Z" stroke="#FFFFFF" stroke-width="4.58333" stroke-miterlimit="8" fill="#A5A5A5" fill-rule="evenodd"/><text font-family="Calibri,Calibri_MSFontService,sans-serif" font-weight="400" font-size="64" transform="matrix(1 0 0 1 1885.61 1686)">MLP</text><path d="M1453.58 1512.1 1671.15 1981.22" stroke="#959595" stroke-width="4.58333" stroke-miterlimit="8" fill="none" fill-rule="evenodd"/><path d="M1671.5 1872.7C1671.5 1857.68 1683.68 1845.5 1698.7 1845.5L2188.3 1845.5C2203.32 1845.5 2215.5 1857.68 2215.5 1872.7L2215.5 2090.3C2215.5 2105.32 2203.32 2117.5 2188.3 2117.5L1698.7 2117.5C1683.68 2117.5 1671.5 2105.32 1671.5 2090.3Z" stroke="#FFFFFF" stroke-width="4.58333" stroke-miterlimit="8" fill="#A5A5A5" fill-rule="evenodd"/><text font-family="Calibri,Calibri_MSFontService,sans-serif" font-weight="400" font-size="64" transform="matrix(1 0 0 1 1841.33 1999)">1D CNN</text><path d="M2567.5 1226.5C2567.5 1208.83 2581.83 1194.5 2599.5 1194.5L3160.5 1194.5C3178.17 1194.5 3192.5 1208.83 3192.5 1226.5L3192.5 1482.5C3192.5 1500.17 3178.17 1514.5 3160.5 1514.5L2599.5 1514.5C2581.83 1514.5 2567.5 1500.17 2567.5 1482.5Z" stroke="#FFFFFF" stroke-width="4.58333" stroke-miterlimit="8" fill="#A5A5A5" fill-rule="evenodd"/><text font-family="Calibri,Calibri_MSFontService,sans-serif" font-weight="400" font-size="64" transform="matrix(1 0 0 1 2663.83 1336)">Hyperparameter <tspan font-size="64" x="128.929" y="71">Tuning </tspan></text><path d="M3192.5 1354.33 3280.33 1354.33" stroke="#838383" stroke-width="4.58333" stroke-miterlimit="8" fill="none" fill-rule="evenodd"/><path d="M3280.5 1226.5C3280.5 1208.83 3294.83 1194.5 3312.5 1194.5L3874.5 1194.5C3892.17 1194.5 3906.5 1208.83 3906.5 1226.5L3906.5 1482.5C3906.5 1500.17 3892.17 1514.5 3874.5 1514.5L3312.5 1514.5C3294.83 1514.5 3280.5 1500.17 3280.5 1482.5Z" stroke="#FFFFFF" stroke-width="4.58333" stroke-miterlimit="8" fill="#A5A5A5" fill-rule="evenodd"/><text font-family="Calibri,Calibri_MSFontService,sans-serif" font-weight="400" font-size="64" transform="matrix(1 0 0 1 3335.13 1301)">Feature Importance <tspan font-size="64" x="40.1958" y="71">Analysis for Each </tspan><tspan font-size="64" x="173.136" y="141">Model</tspan></text><path d="M3906.5 1354.33 3994.33 1354.33" stroke="#959595" stroke-width="4.58333" stroke-miterlimit="8" fill="none" fill-rule="evenodd"/><path d="M3993.5 1226.5C3993.5 1208.83 4007.83 1194.5 4025.5 1194.5L4587.5 1194.5C4605.17 1194.5 4619.5 1208.83 4619.5 1226.5L4619.5 1482.5C4619.5 1500.17 4605.17 1514.5 4587.5 1514.5L4025.5 1514.5C4007.83 1514.5 3993.5 1500.17 3993.5 1482.5Z" stroke="#FFFFFF" stroke-width="4.58333" stroke-miterlimit="8" fill="#A5A5A5" fill-rule="evenodd"/><text font-family="Calibri,Calibri_MSFontService,sans-serif" font-weight="400" font-size="64" transform="matrix(1 0 0 1 4038.23 1372)">Compare Algorithms</text><path d="M2200.5 739.5 2566.09 1354.21" stroke="#A5A5A5" stroke-width="6.875" stroke-miterlimit="8" fill="none" fill-rule="evenodd"/><path d="M2200.5 1061.5 2566.09 1354.29" stroke="#A5A5A5" stroke-width="6.875" stroke-miterlimit="8" fill="none" fill-rule="evenodd"/><path d="M2200.5 1354.5 2566.09 1354.5" stroke="#A5A5A5" stroke-width="6.875" stroke-miterlimit="8" fill="none" fill-rule="evenodd"/><path d="M0 0 380.147 344.559" stroke="#A5A5A5" stroke-width="6.875" stroke-miterlimit="8" fill="none" fill-rule="evenodd" transform="matrix(1 0 0 -1 2185.5 1699.06)"/><path d="M0 0 365.588 640.589" stroke="#A5A5A5" stroke-width="6.875" stroke-miterlimit="8" fill="none" fill-rule="evenodd" transform="matrix(1 0 0 -1 2200.5 1995.09)"/></g></svg>